<svg width="720" height="900" viewBox="0 0 720 900" fill="none" xmlns="http://www.w3.org/2000/svg">
<rect width="720" height="900" rx="40" fill="url(#paint0_linear)"/>
<ellipse cx="360" cy="760" rx="220" ry="42" fill="#E8CFC2" fill-opacity="0.38"/>
<rect x="200" y="320" width="320" height="220" rx="40" fill="#F7C0D6"/>
<rect x="242" y="230" width="236" height="110" rx="34" fill="#FFE1EB"/>
<circle cx="292" cy="220" r="24" fill="#F06292"/>
<circle cx="360" cy="198" r="30" fill="#FFD8E8"/>
<circle cx="430" cy="220" r="24" fill="#D4AF37"/>
<path d="M226 320C248 286 274 284 296 320" stroke="#FFF5EE" stroke-width="18" stroke-linecap="round"/>
<path d="M314 320C336 286 362 284 384 320" stroke="#FFF5EE" stroke-width="18" stroke-linecap="round"/>
<path d="M402 320C424 286 450 284 472 320" stroke="#FFF5EE" stroke-width="18" stroke-linecap="round"/>
<rect x="174" y="542" width="372" height="28" rx="14" fill="#FFF3E0"/>
<defs>
<linearGradient id="paint0_linear" x1="84" y1="54" x2="640" y2="842" gradientUnits="userSpaceOnUse">
<stop stop-color="#FFF8F8"/>
<stop offset="1" stop-color="#FCE8EE"/>
</linearGradient>
</defs>
</svg>
