<svg width="640" height="480" viewBox="0 0 640 480" fill="none" xmlns="http://www.w3.org/2000/svg">
<rect width="640" height="480" rx="36" fill="url(#paint0_linear)"/>
<ellipse cx="320" cy="392" rx="188" ry="34" fill="#C9B0A6" fill-opacity="0.38"/>
<rect x="188" y="162" width="264" height="152" rx="34" fill="#7A5649"/>
<rect x="220" y="128" width="200" height="54" rx="26" fill="#B68572"/>
<path d="M200 212C254 194 290 230 320 212C350 194 390 232 440 214" stroke="#4E342E" stroke-width="16" stroke-linecap="round"/>
<circle cx="244" cy="128" r="14" fill="#F4CC75"/>
<circle cx="320" cy="116" r="18" fill="#F06292"/>
<circle cx="396" cy="128" r="14" fill="#F4CC75"/>
<path d="M222 164C236 150 250 148 264 164" stroke="#F8E8D8" stroke-width="12" stroke-linecap="round"/>
<path d="M300 164C314 150 328 148 342 164" stroke="#F8E8D8" stroke-width="12" stroke-linecap="round"/>
<path d="M378 164C392 150 406 148 420 164" stroke="#F8E8D8" stroke-width="12" stroke-linecap="round"/>
<rect x="174" y="318" width="292" height="22" rx="11" fill="#F1E3D8"/>
<defs>
<linearGradient id="paint0_linear" x1="74" y1="20" x2="570" y2="454" gradientUnits="userSpaceOnUse">
<stop stop-color="#FFF7F1"/>
<stop offset="1" stop-color="#F1E2D9"/>
</linearGradient>
</defs>
</svg>
