<svg width="640" height="480" viewBox="0 0 640 480" fill="none" xmlns="http://www.w3.org/2000/svg">
<rect width="640" height="480" rx="36" fill="url(#paint0_linear)"/>
<ellipse cx="320" cy="396" rx="186" ry="34" fill="#8B6B61" fill-opacity="0.35"/>
<rect x="188" y="166" width="264" height="154" rx="34" fill="#5A3E37"/>
<path d="M188 198C222 182 266 214 320 198C374 182 408 210 452 196V262C414 246 370 278 320 262C270 246 224 274 188 258V198Z" fill="#7A5548"/>
<path d="M196 164C202 196 230 210 248 164C266 198 294 198 312 164C330 198 360 198 378 164C394 198 424 196 444 164" stroke="#3F2B26" stroke-width="18" stroke-linecap="round"/>
<circle cx="252" cy="146" r="16" fill="#F06292"/>
<circle cx="320" cy="128" r="22" fill="#D4AF37"/>
<circle cx="390" cy="146" r="16" fill="#F06292"/>
<rect x="174" y="322" width="292" height="22" rx="11" fill="#E7D4C8"/>
<defs>
<linearGradient id="paint0_linear" x1="86" y1="34" x2="570" y2="454" gradientUnits="userSpaceOnUse">
<stop stop-color="#FFF0EA"/>
<stop offset="1" stop-color="#F3DCCF"/>
</linearGradient>
</defs>
</svg>
